<svg width="27" height="27" viewBox="0 0 27 27" fill="none" xmlns="http://www.w3.org/2000/svg">
<path d="M15.975 3.23438C14.595 3.23438 13.2716 3.78256 12.2958 4.75833C11.3201 5.73411 10.7719 7.05755 10.7719 8.4375V11.3344H7.9875C7.848 11.3344 7.73438 11.4469 7.73438 11.5875V15.4125C7.73438 15.552 7.84687 15.6656 7.9875 15.6656H10.7719V23.5125C10.7719 23.652 10.8844 23.7656 11.025 23.7656H14.85C14.9895 23.7656 15.1031 23.6531 15.1031 23.5125V15.6656H17.9122C18.0281 15.6656 18.1294 15.5869 18.1575 15.4744L19.1137 11.6494C19.1232 11.6121 19.1239 11.5731 19.116 11.5354C19.1081 11.4977 19.0917 11.4624 19.068 11.432C19.0444 11.4016 19.0141 11.377 18.9795 11.3601C18.945 11.3432 18.907 11.3344 18.8685 11.3344H15.1031V8.4375C15.1031 8.323 15.1257 8.20963 15.1695 8.10385C15.2133 7.99807 15.2775 7.90195 15.3585 7.82099C15.4395 7.74003 15.5356 7.67581 15.6413 7.63199C15.7471 7.58818 15.8605 7.56562 15.975 7.56562H18.9C19.0395 7.56562 19.1531 7.45312 19.1531 7.3125V3.4875C19.1531 3.348 19.0406 3.23438 18.9 3.23438H15.975Z" fill="black"/>
</svg>
