<svg width="22" height="21" viewBox="0 0 22 21" fill="none" xmlns="http://www.w3.org/2000/svg">
<path d="M4.6825 2.62515C4.6822 3.22189 4.44486 3.79406 4.02269 4.21581C3.60052 4.63756 3.02811 4.87432 2.43137 4.87402C1.83463 4.87373 1.26246 4.63639 0.840709 4.21422C0.418964 3.79205 0.182197 3.21964 0.182495 2.6229C0.182794 2.02616 0.420133 1.45398 0.842301 1.03224C1.26447 0.610492 1.83688 0.373725 2.43362 0.374024C3.03036 0.374322 3.60254 0.611661 4.02428 1.03383C4.44603 1.456 4.68279 2.02841 4.6825 2.62515ZM4.75 6.54015H0.249995V20.6251H4.75V6.54015ZM11.86 6.54015H7.3825V20.6251H11.815V13.2339C11.815 9.1164 17.1812 8.7339 17.1812 13.2339V20.6251H21.625V11.7039C21.625 4.76265 13.6825 5.0214 11.815 8.43015L11.86 6.54015Z" fill="black"/>
</svg>
